<svg width="768" height="274" viewBox="0 0 768 274" fill="none" xmlns="http://www.w3.org/2000/svg">
<g clip-path="url(#clip0)">
<path d="M-576 87.977L-469.333 64.6725C-362.667 40.9303 -149.333 -5.0223 64 0.448247C277.333 5.91879 490.667 65.0007 704 87.977C917.333 110.953 1130.67 100.012 1237.33 93.7758L1344 87.977V158H1237.33C1130.67 158 917.333 158 704 158C490.667 158 277.333 158 64 158C-149.333 158 -362.667 158 -469.333 158H-576V87.977Z" fill="#4E8AFF"/>
<rect x="-576" y="157" width="1920" height="117" fill="#4E8AFF"/>
</g>
<path d="M26.464 242.048C25.4187 242.048 24.464 241.797 23.6 241.296C22.7467 240.795 22.0693 240.112 21.568 239.248C21.0773 238.384 20.832 237.435 20.832 236.4C20.832 235.365 21.0773 234.416 21.568 233.552C22.0693 232.688 22.752 232.005 23.616 231.504C24.48 231.003 25.44 230.752 26.496 230.752C27.552 230.752 28.5067 230.997 29.36 231.488C30.224 231.979 30.9013 232.656 31.392 233.52C31.8827 234.373 32.128 235.323 32.128 236.368C32.128 237.413 31.8773 238.373 31.376 239.248C30.8747 240.112 30.192 240.795 29.328 241.296C28.464 241.797 27.5093 242.048 26.464 242.048ZM26.464 241.456C27.4027 241.456 28.256 241.232 29.024 240.784C29.792 240.325 30.4 239.712 30.848 238.944C31.296 238.165 31.52 237.307 31.52 236.368C31.52 235.429 31.3013 234.581 30.864 233.824C30.4267 233.056 29.824 232.453 29.056 232.016C28.2987 231.568 27.4453 231.344 26.496 231.344C25.5467 231.344 24.6827 231.568 23.904 232.016C23.136 232.464 22.528 233.077 22.08 233.856C21.6427 234.624 21.424 235.472 21.424 236.4C21.424 237.328 21.6427 238.181 22.08 238.96C22.528 239.728 23.136 240.336 23.904 240.784C24.672 241.232 25.5253 241.456 26.464 241.456ZM26.608 239.728C25.9787 239.728 25.408 239.589 24.896 239.312C24.3947 239.024 24 238.629 23.712 238.128C23.424 237.616 23.28 237.04 23.28 236.4C23.28 235.76 23.424 235.189 23.712 234.688C24 234.176 24.3947 233.781 24.896 233.504C25.408 233.216 25.9787 233.072 26.608 233.072C27.152 233.072 27.6427 233.184 28.08 233.408C28.528 233.621 28.8853 233.92 29.152 234.304L28.464 234.816C28.24 234.507 27.968 234.277 27.648 234.128C27.328 233.979 26.976 233.904 26.592 233.904C25.8987 233.904 25.3227 234.133 24.864 234.592C24.416 235.051 24.192 235.653 24.192 236.4C24.192 237.147 24.416 237.749 24.864 238.208C25.3227 238.667 25.8987 238.896 26.592 238.896C26.976 238.896 27.328 238.821 27.648 238.672C27.968 238.523 28.24 238.293 28.464 237.984L29.152 238.48C28.8853 238.875 28.528 239.184 28.08 239.408C27.6427 239.621 27.152 239.728 26.608 239.728ZM45.605 240.976V242H37.749V241.184L42.405 236.624C42.9917 236.048 43.3863 235.552 43.589 235.136C43.8023 234.709 43.909 234.283 43.909 233.856C43.909 233.195 43.6797 232.683 43.221 232.32C42.773 231.947 42.1277 231.76 41.285 231.76C39.973 231.76 38.9543 232.176 38.229 233.008L37.413 232.304C37.8503 231.792 38.405 231.397 39.077 231.12C39.7597 230.843 40.5277 230.704 41.381 230.704C42.5223 230.704 43.4237 230.976 44.085 231.52C44.757 232.053 45.093 232.789 45.093 233.728C45.093 234.304 44.965 234.859 44.709 235.392C44.453 235.925 43.9677 236.539 43.253 237.232L39.445 240.976H45.605ZM51.4523 242.096C50.5883 242.096 49.8149 241.867 49.1323 241.408C48.4603 240.949 47.9323 240.293 47.5483 239.44C47.1749 238.576 46.9883 237.563 46.9883 236.4C46.9883 235.237 47.1749 234.229 47.5483 233.376C47.9323 232.512 48.4603 231.851 49.1323 231.392C49.8149 230.933 50.5883 230.704 51.4523 230.704C52.3163 230.704 53.0843 230.933 53.7563 231.392C54.4389 231.851 54.9723 232.512 55.3563 233.376C55.7403 234.229 55.9323 235.237 55.9323 236.4C55.9323 237.563 55.7403 238.576 55.3563 239.44C54.9723 240.293 54.4389 240.949 53.7563 241.408C53.0843 241.867 52.3163 242.096 51.4523 242.096ZM51.4523 241.04C52.1029 241.04 52.6736 240.859 53.1643 240.496C53.6656 240.133 54.0549 239.605 54.3323 238.912C54.6096 238.219 54.7483 237.381 54.7483 236.4C54.7483 235.419 54.6096 234.581 54.3323 233.888C54.0549 233.195 53.6656 232.667 53.1643 232.304C52.6736 231.941 52.1029 231.76 51.4523 231.76C50.8016 231.76 50.2256 231.941 49.7243 232.304C49.2336 232.667 48.8496 233.195 48.5723 233.888C48.2949 234.581 48.1562 235.419 48.1562 236.4C48.1562 237.381 48.2949 238.219 48.5723 238.912C48.8496 239.605 49.2336 240.133 49.7243 240.496C50.2256 240.859 50.8016 241.04 51.4523 241.04ZM65.1988 240.976V242H57.3428V241.184L61.9988 236.624C62.5854 236.048 62.9801 235.552 63.1828 235.136C63.3961 234.709 63.5028 234.283 63.5028 233.856C63.5028 233.195 63.2734 232.683 62.8148 232.32C62.3668 231.947 61.7214 231.76 60.8788 231.76C59.5668 231.76 58.5481 232.176 57.8228 233.008L57.0068 232.304C57.4441 231.792 57.9988 231.397 58.6708 231.12C59.3534 230.843 60.1214 230.704 60.9748 230.704C62.1161 230.704 63.0174 230.976 63.6788 231.52C64.3508 232.053 64.6868 232.789 64.6868 233.728C64.6868 234.304 64.5588 234.859 64.3028 235.392C64.0468 235.925 63.5614 236.539 62.8468 237.232L59.0388 240.976H65.1988ZM69.7485 230.8V242H68.5965V231.824H65.9565V230.8H69.7485ZM84.3093 236.224C85.0879 236.384 85.6799 236.699 86.0853 237.168C86.4906 237.627 86.6933 238.229 86.6933 238.976C86.6933 239.947 86.3466 240.693 85.6533 241.216C84.9706 241.739 83.9626 242 82.6293 242H77.6693V230.8H82.3253C83.5199 230.8 84.4533 231.045 85.1253 231.536C85.7973 232.027 86.1333 232.736 86.1333 233.664C86.1333 234.293 85.9733 234.827 85.6533 235.264C85.3333 235.691 84.8853 236.011 84.3093 236.224ZM78.8373 235.872H82.2613C83.1253 235.872 83.7866 235.696 84.2453 235.344C84.7146 234.992 84.9493 234.48 84.9493 233.808C84.9493 233.136 84.7146 232.624 84.2453 232.272C83.7866 231.92 83.1253 231.744 82.2613 231.744H78.8373V235.872ZM82.6293 241.056C84.5599 241.056 85.5253 240.336 85.5253 238.896C85.5253 237.488 84.5599 236.784 82.6293 236.784H78.8373V241.056H82.6293ZM92.9016 242.08C92.0696 242.08 91.323 241.899 90.6616 241.536C90.011 241.173 89.499 240.667 89.1256 240.016C88.7523 239.355 88.5656 238.613 88.5656 237.792C88.5656 236.971 88.7523 236.235 89.1256 235.584C89.499 234.933 90.011 234.427 90.6616 234.064C91.323 233.701 92.0696 233.52 92.9016 233.52C93.627 233.52 94.2723 233.664 94.8376 233.952C95.4136 234.229 95.867 234.64 96.1976 235.184L95.3496 235.76C95.0723 235.344 94.7203 235.035 94.2936 234.832C93.867 234.619 93.403 234.512 92.9016 234.512C92.2936 234.512 91.7443 234.651 91.2536 234.928C90.7736 235.195 90.395 235.579 90.1176 236.08C89.851 236.581 89.7176 237.152 89.7176 237.792C89.7176 238.443 89.851 239.019 90.1176 239.52C90.395 240.011 90.7736 240.395 91.2536 240.672C91.7443 240.939 92.2936 241.072 92.9016 241.072C93.403 241.072 93.867 240.971 94.2936 240.768C94.7203 240.565 95.0723 240.256 95.3496 239.84L96.1976 240.416C95.867 240.96 95.4136 241.376 94.8376 241.664C94.2616 241.941 93.6163 242.08 92.9016 242.08ZM105.617 238.144H98.5766C98.6406 239.019 98.9766 239.728 99.5846 240.272C100.193 240.805 100.961 241.072 101.889 241.072C102.411 241.072 102.891 240.981 103.329 240.8C103.766 240.608 104.145 240.331 104.465 239.968L105.105 240.704C104.731 241.152 104.262 241.493 103.697 241.728C103.142 241.963 102.529 242.08 101.857 242.08C100.993 242.08 100.225 241.899 99.5526 241.536C98.8913 241.163 98.374 240.651 98.0006 240C97.6273 239.349 97.4406 238.613 97.4406 237.792C97.4406 236.971 97.6166 236.235 97.9686 235.584C98.3313 234.933 98.822 234.427 99.4406 234.064C100.07 233.701 100.774 233.52 101.553 233.52C102.331 233.52 103.03 233.701 103.649 234.064C104.267 234.427 104.753 234.933 105.105 235.584C105.457 236.224 105.633 236.96 105.633 237.792L105.617 238.144ZM101.553 234.496C100.742 234.496 100.059 234.757 99.5046 235.28C98.9606 235.792 98.6513 236.464 98.5766 237.296H104.545C104.47 236.464 104.155 235.792 103.601 235.28C103.057 234.757 102.374 234.496 101.553 234.496ZM119.887 233.584V242H118.751V234.592H113.471V242H112.335V233.584H119.887ZM127.452 233.52C128.241 233.52 128.956 233.701 129.596 234.064C130.236 234.416 130.737 234.917 131.1 235.568C131.463 236.219 131.644 236.96 131.644 237.792C131.644 238.635 131.463 239.381 131.1 240.032C130.737 240.683 130.236 241.189 129.596 241.552C128.967 241.904 128.252 242.08 127.452 242.08C126.769 242.08 126.151 241.941 125.596 241.664C125.052 241.376 124.604 240.96 124.252 240.416V245.104H123.116V233.584H124.204V235.248C124.545 234.693 124.993 234.267 125.548 233.968C126.113 233.669 126.748 233.52 127.452 233.52ZM127.372 241.072C127.959 241.072 128.492 240.939 128.972 240.672C129.452 240.395 129.825 240.005 130.092 239.504C130.369 239.003 130.508 238.432 130.508 237.792C130.508 237.152 130.369 236.587 130.092 236.096C129.825 235.595 129.452 235.205 128.972 234.928C128.492 234.651 127.959 234.512 127.372 234.512C126.775 234.512 126.236 234.651 125.756 234.928C125.287 235.205 124.913 235.595 124.636 236.096C124.369 236.587 124.236 237.152 124.236 237.792C124.236 238.432 124.369 239.003 124.636 239.504C124.913 240.005 125.287 240.395 125.756 240.672C126.236 240.939 126.775 241.072 127.372 241.072ZM136.934 233.52C138.033 233.52 138.875 233.797 139.462 234.352C140.049 234.896 140.342 235.707 140.342 236.784V242H139.254V240.688C138.998 241.125 138.619 241.467 138.118 241.712C137.627 241.957 137.041 242.08 136.358 242.08C135.419 242.08 134.673 241.856 134.118 241.408C133.563 240.96 133.286 240.368 133.286 239.632C133.286 238.917 133.542 238.341 134.054 237.904C134.577 237.467 135.403 237.248 136.534 237.248H139.206V236.736C139.206 236.011 139.003 235.461 138.598 235.088C138.193 234.704 137.601 234.512 136.822 234.512C136.289 234.512 135.777 234.603 135.286 234.784C134.795 234.955 134.374 235.195 134.022 235.504L133.51 234.656C133.937 234.293 134.449 234.016 135.046 233.824C135.643 233.621 136.273 233.52 136.934 233.52ZM136.534 241.184C137.174 241.184 137.723 241.04 138.182 240.752C138.641 240.453 138.982 240.027 139.206 239.472V238.096H136.566C135.126 238.096 134.406 238.597 134.406 239.6C134.406 240.091 134.593 240.48 134.966 240.768C135.339 241.045 135.862 241.184 136.534 241.184ZM148.726 237.648C149.867 237.915 150.438 238.603 150.438 239.712C150.438 240.448 150.166 241.013 149.622 241.408C149.078 241.803 148.267 242 147.19 242H143.366V233.584H147.078C148.038 233.584 148.79 233.771 149.334 234.144C149.878 234.517 150.15 235.051 150.15 235.744C150.15 236.203 150.022 236.597 149.766 236.928C149.521 237.248 149.174 237.488 148.726 237.648ZM144.47 237.328H146.998C147.649 237.328 148.145 237.205 148.486 236.96C148.838 236.715 149.014 236.357 149.014 235.888C149.014 235.419 148.838 235.067 148.486 234.832C148.145 234.597 147.649 234.48 146.998 234.48H144.47V237.328ZM147.142 241.104C147.867 241.104 148.411 240.987 148.774 240.752C149.137 240.517 149.318 240.149 149.318 239.648C149.318 239.147 149.153 238.779 148.822 238.544C148.491 238.299 147.969 238.176 147.254 238.176H144.47V241.104H147.142ZM155.996 233.52C157.095 233.52 157.938 233.797 158.524 234.352C159.111 234.896 159.404 235.707 159.404 236.784V242H158.316V240.688C158.06 241.125 157.682 241.467 157.18 241.712C156.69 241.957 156.103 242.08 155.42 242.08C154.482 242.08 153.735 241.856 153.18 241.408C152.626 240.96 152.348 240.368 152.348 239.632C152.348 238.917 152.604 238.341 153.116 237.904C153.639 237.467 154.466 237.248 155.596 237.248H158.268V236.736C158.268 236.011 158.066 235.461 157.66 235.088C157.255 234.704 156.663 234.512 155.884 234.512C155.351 234.512 154.839 234.603 154.348 234.784C153.858 234.955 153.436 235.195 153.084 235.504L152.572 234.656C152.999 234.293 153.511 234.016 154.108 233.824C154.706 233.621 155.335 233.52 155.996 233.52ZM155.596 241.184C156.236 241.184 156.786 241.04 157.244 240.752C157.703 240.453 158.044 240.027 158.268 239.472V238.096H155.628C154.188 238.096 153.468 238.597 153.468 239.6C153.468 240.091 153.655 240.48 154.028 240.768C154.402 241.045 154.924 241.184 155.596 241.184ZM170.712 237.616C171.309 237.755 171.768 237.995 172.088 238.336C172.419 238.677 172.584 239.093 172.584 239.584C172.584 240.075 172.413 240.512 172.072 240.896C171.741 241.28 171.288 241.579 170.712 241.792C170.136 241.995 169.501 242.096 168.808 242.096C168.2 242.096 167.603 242.011 167.016 241.84C166.429 241.659 165.917 241.397 165.48 241.056L165.864 240.208C166.248 240.496 166.696 240.72 167.208 240.88C167.72 241.04 168.237 241.12 168.76 241.12C169.539 241.12 170.173 240.976 170.664 240.688C171.165 240.389 171.416 239.989 171.416 239.488C171.416 239.04 171.213 238.693 170.808 238.448C170.403 238.192 169.848 238.064 169.144 238.064H167.704V237.232H169.08C169.709 237.232 170.216 237.115 170.6 236.88C170.984 236.635 171.176 236.309 171.176 235.904C171.176 235.456 170.957 235.104 170.52 234.848C170.093 234.592 169.533 234.464 168.84 234.464C167.933 234.464 167.037 234.693 166.152 235.152L165.832 234.272C166.835 233.749 167.875 233.488 168.952 233.488C169.592 233.488 170.168 233.584 170.68 233.776C171.203 233.957 171.608 234.219 171.896 234.56C172.195 234.901 172.344 235.296 172.344 235.744C172.344 236.171 172.195 236.549 171.896 236.88C171.608 237.211 171.213 237.456 170.712 237.616ZM178.059 233.52C179.158 233.52 180 233.797 180.587 234.352C181.174 234.896 181.467 235.707 181.467 236.784V242H180.379V240.688C180.123 241.125 179.744 241.467 179.243 241.712C178.752 241.957 178.166 242.08 177.483 242.08C176.544 242.08 175.798 241.856 175.243 241.408C174.688 240.96 174.411 240.368 174.411 239.632C174.411 238.917 174.667 238.341 175.179 237.904C175.702 237.467 176.528 237.248 177.659 237.248H180.331V236.736C180.331 236.011 180.128 235.461 179.723 235.088C179.318 234.704 178.726 234.512 177.947 234.512C177.414 234.512 176.902 234.603 176.411 234.784C175.92 234.955 175.499 235.195 175.147 235.504L174.635 234.656C175.062 234.293 175.574 234.016 176.171 233.824C176.768 233.621 177.398 233.52 178.059 233.52ZM177.659 241.184C178.299 241.184 178.848 241.04 179.307 240.752C179.766 240.453 180.107 240.027 180.331 239.472V238.096H177.691C176.251 238.096 175.531 238.597 175.531 239.6C175.531 240.091 175.718 240.48 176.091 240.768C176.464 241.045 176.987 241.184 177.659 241.184ZM196.107 233.584V242H184.491V233.584H185.627V241.008H189.755V233.584H190.891V241.008H194.971V233.584H196.107ZM197.403 241.008V243.84H196.331V242H194.907V241.008H197.403ZM199.35 233.584H200.486V240.272L206.102 233.584H207.11V242H205.974V235.312L200.374 242H199.35V233.584ZM221.982 233.584V242H210.366V233.584H211.502V241.008H215.63V233.584H216.766V241.008H220.846V233.584H221.982ZM223.278 241.008V243.84H222.206V242H220.782V241.008H223.278ZM232.585 238.144H225.545C225.609 239.019 225.945 239.728 226.553 240.272C227.161 240.805 227.929 241.072 228.857 241.072C229.38 241.072 229.86 240.981 230.297 240.8C230.735 240.608 231.113 240.331 231.433 239.968L232.073 240.704C231.7 241.152 231.231 241.493 230.665 241.728C230.111 241.963 229.497 242.08 228.825 242.08C227.961 242.08 227.193 241.899 226.521 241.536C225.86 241.163 225.343 240.651 224.969 240C224.596 239.349 224.409 238.613 224.409 237.792C224.409 236.971 224.585 236.235 224.937 235.584C225.3 234.933 225.791 234.427 226.409 234.064C227.039 233.701 227.743 233.52 228.521 233.52C229.3 233.52 229.999 233.701 230.617 234.064C231.236 234.427 231.721 234.933 232.073 235.584C232.425 236.224 232.601 236.96 232.601 237.792L232.585 238.144ZM228.521 234.496C227.711 234.496 227.028 234.757 226.473 235.28C225.929 235.792 225.62 236.464 225.545 237.296H231.513C231.439 236.464 231.124 235.792 230.569 235.28C230.025 234.757 229.343 234.496 228.521 234.496ZM235.116 233.584H236.252V237.312H241.548V233.584H242.684V242H241.548V238.288H236.252V242H235.116V233.584ZM249.449 236.56C250.505 236.571 251.31 236.805 251.865 237.264C252.42 237.723 252.697 238.384 252.697 239.248C252.697 240.144 252.398 240.832 251.801 241.312C251.204 241.792 250.35 242.027 249.241 242.016L245.913 242V233.584H247.049V236.528L249.449 236.56ZM254.105 233.584H255.241V242H254.105V233.584ZM249.177 241.152C249.956 241.163 250.542 241.008 250.937 240.688C251.342 240.357 251.545 239.877 251.545 239.248C251.545 238.629 251.348 238.171 250.953 237.872C250.558 237.573 249.966 237.419 249.177 237.408L247.049 237.376V241.12L249.177 241.152Z" fill="white"/>
<path d="M37.5772 161.788C35.8089 161.788 34.4296 161.299 33.4393 160.321C32.4608 159.342 31.9716 157.945 31.9716 156.13V149.198H34.8363V156.024C34.8363 158.24 35.7559 159.348 37.5949 159.348C38.4909 159.348 39.1746 159.083 39.6462 158.552C40.1178 158.01 40.3535 157.167 40.3535 156.024V149.198H43.1829V156.13C43.1829 157.945 42.6877 159.342 41.6975 160.321C40.719 161.299 39.3456 161.788 37.5772 161.788ZM49.9041 157.845L48.5778 159.154V161.576H45.8192V148.455H48.5778V155.882L52.6097 152.063H55.8988L51.9377 156.094L56.2524 161.576H52.9103L49.9041 157.845ZM60.0588 153.318C60.3889 152.858 60.831 152.511 61.385 152.275C61.9509 152.039 62.5993 151.921 63.3302 151.921V154.468C63.0237 154.444 62.8174 154.432 62.7113 154.432C61.9214 154.432 61.3025 154.656 60.8545 155.104C60.4066 155.54 60.1826 156.2 60.1826 157.085V161.576H57.424V152.063H60.0588V153.318ZM68.756 151.921C70.2296 151.921 71.3613 152.275 72.1512 152.982C72.941 153.678 73.336 154.733 73.336 156.147V161.576H70.7542V160.391C70.2355 161.276 69.2688 161.718 67.8541 161.718C67.1232 161.718 66.4866 161.594 65.9443 161.346C65.4138 161.099 65.0071 160.757 64.7242 160.321C64.4412 159.885 64.2998 159.389 64.2998 158.835C64.2998 157.951 64.6298 157.256 65.29 156.749C65.962 156.242 66.9935 155.988 68.3846 155.988H70.5774C70.5774 155.387 70.3946 154.927 70.0292 154.609C69.6637 154.279 69.1155 154.114 68.3846 154.114C67.8777 154.114 67.3767 154.196 66.8815 154.361C66.3982 154.515 65.9856 154.727 65.6437 154.998L64.6534 153.071C65.1721 152.705 65.7911 152.422 66.5102 152.222C67.2411 152.021 67.9897 151.921 68.756 151.921ZM68.5438 159.861C69.0153 159.861 69.4338 159.755 69.7993 159.543C70.1648 159.319 70.4241 158.994 70.5774 158.57V157.597H68.6852C67.5535 157.597 66.9876 157.969 66.9876 158.712C66.9876 159.065 67.1232 159.348 67.3944 159.56C67.6773 159.761 68.0604 159.861 68.5438 159.861ZM75.8326 152.063H78.5913V161.576H75.8326V152.063ZM77.212 150.736C76.705 150.736 76.2924 150.589 75.9741 150.294C75.6558 150 75.4967 149.634 75.4967 149.198C75.4967 148.762 75.6558 148.396 75.9741 148.101C76.2924 147.807 76.705 147.659 77.212 147.659C77.7189 147.659 78.1315 147.801 78.4498 148.084C78.7681 148.367 78.9272 148.72 78.9272 149.145C78.9272 149.605 78.7681 149.988 78.4498 150.294C78.1315 150.589 77.7189 150.736 77.212 150.736ZM86.934 151.921C88.1128 151.921 89.0619 152.275 89.781 152.982C90.5119 153.689 90.8774 154.739 90.8774 156.13V161.576H88.1187V156.554C88.1187 155.8 87.9537 155.24 87.6236 154.874C87.2935 154.497 86.8161 154.308 86.1913 154.308C85.4957 154.308 84.9416 154.526 84.529 154.963C84.1164 155.387 83.9101 156.024 83.9101 156.872V161.576H81.1515V152.063H83.7863V153.177C84.1518 152.776 84.6056 152.469 85.1479 152.257C85.6902 152.033 86.2856 151.921 86.934 151.921ZM93.3779 152.063H96.1365V161.576H93.3779V152.063ZM94.7572 150.736C94.2503 150.736 93.8377 150.589 93.5194 150.294C93.2011 150 93.0419 149.634 93.0419 149.198C93.0419 148.762 93.2011 148.396 93.5194 148.101C93.8377 147.807 94.2503 147.659 94.7572 147.659C95.2641 147.659 95.6767 147.801 95.995 148.084C96.3133 148.367 96.4725 148.72 96.4725 149.145C96.4725 149.605 96.3133 149.988 95.995 150.294C95.6767 150.589 95.2641 150.736 94.7572 150.736ZM102.534 151.921C104.008 151.921 105.139 152.275 105.929 152.982C106.719 153.678 107.114 154.733 107.114 156.147V161.576H104.532V160.391C104.014 161.276 103.047 161.718 101.632 161.718C100.901 161.718 100.265 161.594 99.7224 161.346C99.1919 161.099 98.7851 160.757 98.5022 160.321C98.2193 159.885 98.0778 159.389 98.0778 158.835C98.0778 157.951 98.4079 157.256 99.0681 156.749C99.74 156.242 100.772 155.988 102.163 155.988H104.355C104.355 155.387 104.173 154.927 103.807 154.609C103.442 154.279 102.894 154.114 102.163 154.114C101.656 154.114 101.155 154.196 100.66 154.361C100.176 154.515 99.7636 154.727 99.4217 154.998L98.4315 153.071C98.9502 152.705 99.5691 152.422 100.288 152.222C101.019 152.021 101.768 151.921 102.534 151.921ZM102.322 159.861C102.793 159.861 103.212 159.755 103.577 159.543C103.943 159.319 104.202 158.994 104.355 158.57V157.597H102.463C101.332 157.597 100.766 157.969 100.766 158.712C100.766 159.065 100.901 159.348 101.172 159.56C101.455 159.761 101.838 159.861 102.322 159.861ZM115.393 151.921C116.572 151.921 117.521 152.275 118.24 152.982C118.971 153.689 119.337 154.739 119.337 156.13V161.576H116.578V156.554C116.578 155.8 116.413 155.24 116.083 154.874C115.753 154.497 115.275 154.308 114.65 154.308C113.955 154.308 113.401 154.526 112.988 154.963C112.576 155.387 112.369 156.024 112.369 156.872V161.576H109.611V152.063H112.246V153.177C112.611 152.776 113.065 152.469 113.607 152.257C114.149 152.033 114.745 151.921 115.393 151.921ZM136.624 159.277V161.576H127.04V149.198H136.394V151.497H129.887V154.185H135.634V156.413H129.887V159.277H136.624ZM144.491 151.921C145.67 151.921 146.619 152.275 147.338 152.982C148.069 153.689 148.435 154.739 148.435 156.13V161.576H145.676V156.554C145.676 155.8 145.511 155.24 145.181 154.874C144.851 154.497 144.373 154.308 143.749 154.308C143.053 154.308 142.499 154.526 142.086 154.963C141.674 155.387 141.467 156.024 141.467 156.872V161.576H138.709V152.063H141.344V153.177C141.709 152.776 142.163 152.469 142.705 152.257C143.248 152.033 143.843 151.921 144.491 151.921ZM160.853 152.063V159.985C160.853 161.729 160.399 163.026 159.492 163.875C158.584 164.724 157.258 165.148 155.513 165.148C154.593 165.148 153.721 165.036 152.896 164.812C152.07 164.588 151.387 164.264 150.844 163.84L151.941 161.859C152.342 162.189 152.848 162.449 153.462 162.637C154.075 162.838 154.688 162.938 155.301 162.938C156.256 162.938 156.957 162.72 157.405 162.284C157.865 161.859 158.095 161.211 158.095 160.338V159.932C157.375 160.722 156.373 161.116 155.088 161.116C154.216 161.116 153.414 160.928 152.683 160.551C151.964 160.162 151.393 159.619 150.968 158.924C150.544 158.228 150.332 157.427 150.332 156.519C150.332 155.611 150.544 154.809 150.968 154.114C151.393 153.418 151.964 152.882 152.683 152.505C153.414 152.116 154.216 151.921 155.088 151.921C156.468 151.921 157.517 152.375 158.236 153.283V152.063H160.853ZM155.637 158.853C156.367 158.853 156.963 158.641 157.423 158.216C157.894 157.78 158.13 157.214 158.13 156.519C158.13 155.823 157.894 155.263 157.423 154.839C156.963 154.403 156.367 154.185 155.637 154.185C154.906 154.185 154.304 154.403 153.833 154.839C153.361 155.263 153.126 155.823 153.126 156.519C153.126 157.214 153.361 157.78 153.833 158.216C154.304 158.641 154.906 158.853 155.637 158.853ZM163.421 152.063H166.179V161.576H163.421V152.063ZM164.8 150.736C164.293 150.736 163.88 150.589 163.562 150.294C163.244 150 163.085 149.634 163.085 149.198C163.085 148.762 163.244 148.396 163.562 148.101C163.88 147.807 164.293 147.659 164.8 147.659C165.307 147.659 165.72 147.801 166.038 148.084C166.356 148.367 166.515 148.72 166.515 149.145C166.515 149.605 166.356 149.988 166.038 150.294C165.72 150.589 165.307 150.736 164.8 150.736ZM174.522 151.921C175.701 151.921 176.65 152.275 177.369 152.982C178.1 153.689 178.465 154.739 178.465 156.13V161.576H175.707V156.554C175.707 155.8 175.542 155.24 175.212 154.874C174.882 154.497 174.404 154.308 173.779 154.308C173.084 154.308 172.53 154.526 172.117 154.963C171.704 155.387 171.498 156.024 171.498 156.872V161.576H168.74V152.063H171.374V153.177C171.74 152.776 172.194 152.469 172.736 152.257C173.278 152.033 173.874 151.921 174.522 151.921ZM190.389 156.855C190.389 156.89 190.371 157.138 190.336 157.597H183.139C183.268 158.187 183.575 158.653 184.058 158.994C184.541 159.336 185.143 159.507 185.862 159.507C186.357 159.507 186.793 159.437 187.17 159.295C187.559 159.142 187.919 158.906 188.249 158.588L189.717 160.179C188.821 161.205 187.512 161.718 185.791 161.718C184.718 161.718 183.769 161.511 182.944 161.099C182.119 160.674 181.482 160.091 181.034 159.348C180.586 158.605 180.362 157.763 180.362 156.819C180.362 155.888 180.58 155.051 181.017 154.308C181.465 153.554 182.072 152.97 182.838 152.558C183.616 152.133 184.482 151.921 185.437 151.921C186.369 151.921 187.212 152.122 187.966 152.522C188.721 152.923 189.31 153.501 189.734 154.255C190.171 154.998 190.389 155.864 190.389 156.855ZM185.455 154.008C184.83 154.008 184.306 154.185 183.881 154.538C183.457 154.892 183.197 155.375 183.103 155.988H187.789C187.695 155.387 187.436 154.91 187.011 154.556C186.587 154.19 186.068 154.008 185.455 154.008ZM201.544 156.855C201.544 156.89 201.527 157.138 201.491 157.597H194.294C194.424 158.187 194.73 158.653 195.214 158.994C195.697 159.336 196.298 159.507 197.018 159.507C197.513 159.507 197.949 159.437 198.326 159.295C198.715 159.142 199.075 158.906 199.405 158.588L200.873 160.179C199.977 161.205 198.668 161.718 196.947 161.718C195.874 161.718 194.925 161.511 194.1 161.099C193.275 160.674 192.638 160.091 192.19 159.348C191.742 158.605 191.518 157.763 191.518 156.819C191.518 155.888 191.736 155.051 192.172 154.308C192.62 153.554 193.227 152.97 193.994 152.558C194.772 152.133 195.638 151.921 196.593 151.921C197.524 151.921 198.367 152.122 199.122 152.522C199.876 152.923 200.466 153.501 200.89 154.255C201.326 154.998 201.544 155.864 201.544 156.855ZM196.611 154.008C195.986 154.008 195.461 154.185 195.037 154.538C194.613 154.892 194.353 155.375 194.259 155.988H198.945C198.851 155.387 198.591 154.91 198.167 154.556C197.743 154.19 197.224 154.008 196.611 154.008ZM206.016 153.318C206.346 152.858 206.788 152.511 207.342 152.275C207.908 152.039 208.556 151.921 209.287 151.921V154.468C208.981 154.444 208.774 154.432 208.668 154.432C207.879 154.432 207.26 154.656 206.812 155.104C206.364 155.54 206.14 156.2 206.14 157.085V161.576H203.381V152.063H206.016V153.318ZM210.928 152.063H213.686V161.576H210.928V152.063ZM212.307 150.736C211.8 150.736 211.387 150.589 211.069 150.294C210.751 150 210.592 149.634 210.592 149.198C210.592 148.762 210.751 148.396 211.069 148.101C211.387 147.807 211.8 147.659 212.307 147.659C212.814 147.659 213.226 147.801 213.545 148.084C213.863 148.367 214.022 148.72 214.022 149.145C214.022 149.605 213.863 149.988 213.545 150.294C213.226 150.589 212.814 150.736 212.307 150.736ZM222.029 151.921C223.208 151.921 224.157 152.275 224.876 152.982C225.607 153.689 225.972 154.739 225.972 156.13V161.576H223.214V156.554C223.214 155.8 223.049 155.24 222.719 154.874C222.388 154.497 221.911 154.308 221.286 154.308C220.591 154.308 220.037 154.526 219.624 154.963C219.211 155.387 219.005 156.024 219.005 156.872V161.576H216.246V152.063H218.881V153.177C219.247 152.776 219.701 152.469 220.243 152.257C220.785 152.033 221.381 151.921 222.029 151.921ZM238.391 152.063V159.985C238.391 161.729 237.937 163.026 237.029 163.875C236.121 164.724 234.795 165.148 233.05 165.148C232.131 165.148 231.258 165.036 230.433 164.812C229.608 164.588 228.924 164.264 228.382 163.84L229.478 161.859C229.879 162.189 230.386 162.449 230.999 162.637C231.612 162.838 232.225 162.938 232.838 162.938C233.793 162.938 234.494 162.72 234.942 162.284C235.402 161.859 235.632 161.211 235.632 160.338V159.932C234.913 160.722 233.911 161.116 232.626 161.116C231.754 161.116 230.952 160.928 230.221 160.551C229.502 160.162 228.93 159.619 228.506 158.924C228.081 158.228 227.869 157.427 227.869 156.519C227.869 155.611 228.081 154.809 228.506 154.114C228.93 153.418 229.502 152.882 230.221 152.505C230.952 152.116 231.754 151.921 232.626 151.921C234.005 151.921 235.054 152.375 235.774 153.283V152.063H238.391ZM233.174 158.853C233.905 158.853 234.5 158.641 234.96 158.216C235.432 157.78 235.667 157.214 235.667 156.519C235.667 155.823 235.432 155.263 234.96 154.839C234.5 154.403 233.905 154.185 233.174 154.185C232.443 154.185 231.842 154.403 231.37 154.839C230.899 155.263 230.663 155.823 230.663 156.519C230.663 157.214 230.899 157.78 231.37 158.216C231.842 158.641 232.443 158.853 233.174 158.853ZM41.6621 177.277V179.576H32.0777V167.198H41.4322V169.497H34.9247V172.185H40.6718V174.413H34.9247V177.277H41.6621ZM49.6738 179.576L47.5872 176.658L45.4298 179.576H42.4236L46.0841 174.784L42.5474 170.063H45.642L47.6579 172.839L49.7268 170.063H52.6623L49.1256 174.713L52.8038 179.576H49.6738ZM59.7662 169.921C60.6503 169.921 61.452 170.127 62.1711 170.54C62.902 170.941 63.4738 171.513 63.8864 172.255C64.299 172.986 64.5053 173.841 64.5053 174.819C64.5053 175.798 64.299 176.658 63.8864 177.401C63.4738 178.132 62.902 178.704 62.1711 179.116C61.452 179.517 60.6503 179.718 59.7662 179.718C58.5519 179.718 57.597 179.335 56.9015 178.568V183.007H54.1429V170.063H56.7777V171.159C57.4614 170.334 58.4576 169.921 59.7662 169.921ZM59.2887 177.454C59.9961 177.454 60.5737 177.218 61.0217 176.747C61.4815 176.264 61.7114 175.621 61.7114 174.819C61.7114 174.018 61.4815 173.381 61.0217 172.91C60.5737 172.426 59.9961 172.185 59.2887 172.185C58.5814 172.185 57.9978 172.426 57.5381 172.91C57.0901 173.381 56.8661 174.018 56.8661 174.819C56.8661 175.621 57.0901 176.264 57.5381 176.747C57.9978 177.218 58.5814 177.454 59.2887 177.454ZM75.6712 174.855C75.6712 174.89 75.6535 175.138 75.6181 175.597H68.421C68.5506 176.187 68.8571 176.653 69.3405 176.994C69.8238 177.336 70.4251 177.507 71.1442 177.507C71.6393 177.507 72.0755 177.437 72.4528 177.295C72.8418 177.142 73.2014 176.906 73.5315 176.588L74.9992 178.179C74.1032 179.205 72.7947 179.718 71.0735 179.718C70.0007 179.718 69.0517 179.511 68.2264 179.099C67.4012 178.674 66.7646 178.091 66.3166 177.348C65.8687 176.605 65.6447 175.763 65.6447 174.819C65.6447 173.888 65.8628 173.051 66.299 172.308C66.7469 171.554 67.3541 170.97 68.1203 170.558C68.8984 170.133 69.7649 169.921 70.7198 169.921C71.6511 169.921 72.494 170.122 73.2485 170.522C74.003 170.923 74.5925 171.501 75.0169 172.255C75.4531 172.998 75.6712 173.864 75.6712 174.855ZM70.7375 172.008C70.1127 172.008 69.5881 172.185 69.1637 172.538C68.7393 172.892 68.4799 173.375 68.3856 173.988H73.0717C72.9774 173.387 72.718 172.91 72.2936 172.556C71.8692 172.19 71.3505 172.008 70.7375 172.008ZM80.1426 171.318C80.4727 170.858 80.9147 170.511 81.4688 170.275C82.0347 170.039 82.6831 169.921 83.414 169.921V172.468C83.1075 172.444 82.9012 172.432 82.7951 172.432C82.0052 172.432 81.3863 172.656 80.9383 173.104C80.4903 173.54 80.2663 174.2 80.2663 175.085V179.576H77.5077V170.063H80.1426V171.318ZM91.5185 179.116C91.2474 179.317 90.9114 179.47 90.5106 179.576C90.1215 179.671 89.7089 179.718 89.2727 179.718C88.141 179.718 87.2627 179.429 86.6379 178.851C86.0249 178.274 85.7184 177.425 85.7184 176.305V172.397H84.2506V170.275H85.7184V167.958H88.477V170.275H90.8465V172.397H88.477V176.269C88.477 176.67 88.5772 176.983 88.7776 177.207C88.9898 177.419 89.2845 177.525 89.6618 177.525C90.0979 177.525 90.4693 177.407 90.7758 177.171L91.5185 179.116ZM104.194 179.788C102.932 179.788 101.789 179.517 100.763 178.975C99.7491 178.421 98.9474 177.661 98.358 176.694C97.7803 175.715 97.4915 174.613 97.4915 173.387C97.4915 172.161 97.7803 171.065 98.358 170.098C98.9474 169.119 99.7491 168.359 100.763 167.817C101.789 167.263 102.938 166.986 104.211 166.986C105.284 166.986 106.251 167.174 107.111 167.552C107.984 167.929 108.715 168.471 109.304 169.178L107.465 170.876C106.628 169.909 105.59 169.426 104.353 169.426C103.586 169.426 102.903 169.597 102.301 169.939C101.7 170.269 101.229 170.735 100.887 171.336C100.557 171.937 100.392 172.621 100.392 173.387C100.392 174.153 100.557 174.837 100.887 175.438C101.229 176.04 101.7 176.511 102.301 176.853C102.903 177.183 103.586 177.348 104.353 177.348C105.59 177.348 106.628 176.859 107.465 175.88L109.304 177.578C108.715 178.297 107.984 178.845 107.111 179.223C106.239 179.6 105.266 179.788 104.194 179.788ZM120.035 174.855C120.035 174.89 120.017 175.138 119.982 175.597H112.785C112.915 176.187 113.221 176.653 113.704 176.994C114.188 177.336 114.789 177.507 115.508 177.507C116.003 177.507 116.439 177.437 116.817 177.295C117.206 177.142 117.565 176.906 117.895 176.588L119.363 178.179C118.467 179.205 117.159 179.718 115.437 179.718C114.365 179.718 113.416 179.511 112.59 179.099C111.765 178.674 111.129 178.091 110.681 177.348C110.233 176.605 110.009 175.763 110.009 174.819C110.009 173.888 110.227 173.051 110.663 172.308C111.111 171.554 111.718 170.97 112.484 170.558C113.262 170.133 114.129 169.921 115.084 169.921C116.015 169.921 116.858 170.122 117.612 170.522C118.367 170.923 118.956 171.501 119.381 172.255C119.817 172.998 120.035 173.864 120.035 174.855ZM115.101 172.008C114.477 172.008 113.952 172.185 113.528 172.538C113.103 172.892 112.844 173.375 112.75 173.988H117.436C117.341 173.387 117.082 172.91 116.658 172.556C116.233 172.19 115.714 172.008 115.101 172.008ZM127.654 169.921C128.833 169.921 129.782 170.275 130.501 170.982C131.232 171.689 131.598 172.739 131.598 174.13V179.576H128.839V174.554C128.839 173.8 128.674 173.24 128.344 172.874C128.014 172.497 127.536 172.308 126.911 172.308C126.216 172.308 125.662 172.526 125.249 172.963C124.837 173.387 124.63 174.024 124.63 174.872V179.576H121.872V170.063H124.506V171.177C124.872 170.776 125.326 170.469 125.868 170.257C126.41 170.033 127.006 169.921 127.654 169.921ZM140.234 179.116C139.963 179.317 139.627 179.47 139.226 179.576C138.837 179.671 138.425 179.718 137.988 179.718C136.857 179.718 135.978 179.429 135.354 178.851C134.741 178.274 134.434 177.425 134.434 176.305V172.397H132.966V170.275H134.434V167.958H137.193V170.275H139.562V172.397H137.193V176.269C137.193 176.67 137.293 176.983 137.493 177.207C137.705 177.419 138 177.525 138.377 177.525C138.814 177.525 139.185 177.407 139.492 177.171L140.234 179.116ZM150.808 174.855C150.808 174.89 150.791 175.138 150.755 175.597H143.558C143.688 176.187 143.994 176.653 144.478 176.994C144.961 177.336 145.562 177.507 146.281 177.507C146.777 177.507 147.213 177.437 147.59 177.295C147.979 177.142 148.339 176.906 148.669 176.588L150.136 178.179C149.24 179.205 147.932 179.718 146.211 179.718C145.138 179.718 144.189 179.511 143.364 179.099C142.538 178.674 141.902 178.091 141.454 177.348C141.006 176.605 140.782 175.763 140.782 174.819C140.782 173.888 141 173.051 141.436 172.308C141.884 171.554 142.491 170.97 143.258 170.558C144.036 170.133 144.902 169.921 145.857 169.921C146.788 169.921 147.631 170.122 148.386 170.522C149.14 170.923 149.73 171.501 150.154 172.255C150.59 172.998 150.808 173.864 150.808 174.855ZM145.875 172.008C145.25 172.008 144.725 172.185 144.301 172.538C143.876 172.892 143.617 173.375 143.523 173.988H148.209C148.115 173.387 147.855 172.91 147.431 172.556C147.006 172.19 146.488 172.008 145.875 172.008ZM155.28 171.318C155.61 170.858 156.052 170.511 156.606 170.275C157.172 170.039 157.82 169.921 158.551 169.921V172.468C158.245 172.444 158.038 172.432 157.932 172.432C157.142 172.432 156.523 172.656 156.075 173.104C155.628 173.54 155.404 174.2 155.404 175.085V179.576H152.645V170.063H155.28V171.318Z" fill="white"/>
<path d="M46.5251 140.407L24.4209 140.407" stroke="#353B49" stroke-width="1.76834" stroke-linecap="round"/>
<path d="M46.5251 136L20 136" stroke="white" stroke-width="1.76834" stroke-linecap="round"/>
<path d="M24.4209 140.407L24.4209 153.627" stroke="#353B49" stroke-width="1.76834" stroke-linecap="round"/>
<path d="M20 136L20 153.627" stroke="white" stroke-width="1.76834" stroke-linecap="round"/>
<path d="M222.475 183.593L244.579 183.593" stroke="#353B49" stroke-width="1.76834" stroke-linecap="round"/>
<path d="M222.475 188L249 188" stroke="white" stroke-width="1.76834" stroke-linecap="round"/>
<path d="M244.579 183.593L244.579 170.373" stroke="#353B49" stroke-width="1.76834" stroke-linecap="round"/>
<path d="M249 188L249 170.373" stroke="white" stroke-width="1.76834" stroke-linecap="round"/>
<path d="M342.736 154.192C341.573 154.192 340.523 153.941 339.584 153.44C338.656 152.939 337.925 152.251 337.392 151.376C336.869 150.491 336.608 149.499 336.608 148.4C336.608 147.301 336.869 146.315 337.392 145.44C337.925 144.555 338.656 143.861 339.584 143.36C340.523 142.859 341.573 142.608 342.736 142.608C343.899 142.608 344.944 142.859 345.872 143.36C346.8 143.861 347.531 144.555 348.064 145.44C348.597 146.315 348.864 147.301 348.864 148.4C348.864 149.499 348.597 150.491 348.064 151.376C347.531 152.251 346.8 152.939 345.872 153.44C344.944 153.941 343.899 154.192 342.736 154.192ZM342.736 151.984C343.397 151.984 343.995 151.835 344.528 151.536C345.061 151.227 345.477 150.8 345.776 150.256C346.085 149.712 346.24 149.093 346.24 148.4C346.24 147.707 346.085 147.088 345.776 146.544C345.477 146 345.061 145.579 344.528 145.28C343.995 144.971 343.397 144.816 342.736 144.816C342.075 144.816 341.477 144.971 340.944 145.28C340.411 145.579 339.989 146 339.68 146.544C339.381 147.088 339.232 147.707 339.232 148.4C339.232 149.093 339.381 149.712 339.68 150.256C339.989 150.8 340.411 151.227 340.944 151.536C341.477 151.835 342.075 151.984 342.736 151.984ZM358.992 150.736H357.696V154H355.2V145.392H357.696V148.736H359.04L361.376 145.392H364.032L361.024 149.52L364.24 154H361.296L358.992 150.736ZM369.232 154.128C368.325 154.128 367.509 153.941 366.784 153.568C366.069 153.184 365.509 152.656 365.104 151.984C364.699 151.312 364.496 150.549 364.496 149.696C364.496 148.843 364.699 148.08 365.104 147.408C365.509 146.736 366.069 146.213 366.784 145.84C367.509 145.456 368.325 145.264 369.232 145.264C370.139 145.264 370.949 145.456 371.664 145.84C372.379 146.213 372.939 146.736 373.344 147.408C373.749 148.08 373.952 148.843 373.952 149.696C373.952 150.549 373.749 151.312 373.344 151.984C372.939 152.656 372.379 153.184 371.664 153.568C370.949 153.941 370.139 154.128 369.232 154.128ZM369.232 152.08C369.872 152.08 370.395 151.867 370.8 151.44C371.216 151.003 371.424 150.421 371.424 149.696C371.424 148.971 371.216 148.395 370.8 147.968C370.395 147.531 369.872 147.312 369.232 147.312C368.592 147.312 368.064 147.531 367.648 147.968C367.232 148.395 367.024 148.971 367.024 149.696C367.024 150.421 367.232 151.003 367.648 151.44C368.064 151.867 368.592 152.08 369.232 152.08ZM384.069 154V148.848L381.493 153.168H380.437L377.925 148.832V154H375.669V145.392H378.277L381.029 150.368L383.957 145.392H386.293L386.325 154H384.069ZM397.276 145.392V154H394.78V147.44H391.196V154H388.716V145.392H397.276ZM403.013 145.264C404.346 145.264 405.37 145.584 406.085 146.224C406.799 146.853 407.157 147.808 407.157 149.088V154H404.821V152.928C404.351 153.728 403.477 154.128 402.197 154.128C401.535 154.128 400.959 154.016 400.469 153.792C399.989 153.568 399.621 153.259 399.365 152.864C399.109 152.469 398.981 152.021 398.981 151.52C398.981 150.72 399.279 150.091 399.877 149.632C400.485 149.173 401.418 148.944 402.677 148.944H404.661C404.661 148.4 404.495 147.984 404.165 147.696C403.834 147.397 403.338 147.248 402.677 147.248C402.218 147.248 401.765 147.323 401.317 147.472C400.879 147.611 400.506 147.803 400.197 148.048L399.301 146.304C399.77 145.973 400.33 145.717 400.981 145.536C401.642 145.355 402.319 145.264 403.013 145.264ZM402.821 152.448C403.247 152.448 403.626 152.352 403.957 152.16C404.287 151.957 404.522 151.664 404.661 151.28V150.4H402.949C401.925 150.4 401.413 150.736 401.413 151.408C401.413 151.728 401.535 151.984 401.781 152.176C402.037 152.357 402.383 152.448 402.821 152.448ZM409.325 145.392H411.805V148.752H415.549V145.392H418.045V154H415.549V150.784H411.805V154H409.325V145.392ZM420.434 145.392H422.914V150.512L427.106 145.392H429.394V154H426.914V148.88L422.738 154H420.434V145.392ZM431.794 145.392H434.274V150.512L438.466 145.392H440.754V154H438.274V148.88L434.098 154H431.794V145.392Z" fill="white"/>
<path d="M347.504 198.8L342.736 207.664C342.277 208.517 341.723 209.163 341.072 209.6C340.432 210.037 339.733 210.256 338.976 210.256C338.389 210.256 337.781 210.128 337.152 209.872L337.776 207.904C338.224 208.043 338.597 208.112 338.896 208.112C339.216 208.112 339.504 208.037 339.76 207.888C340.016 207.728 340.251 207.483 340.464 207.152L340.56 207.024L336.144 198.8H338.912L341.888 204.816L344.96 198.8H347.504ZM351.999 210.128C351.082 210.128 350.255 209.941 349.519 209.568C348.794 209.184 348.223 208.656 347.807 207.984C347.402 207.312 347.199 206.549 347.199 205.696C347.199 204.843 347.402 204.08 347.807 203.408C348.223 202.736 348.794 202.213 349.519 201.84C350.255 201.456 351.082 201.264 351.999 201.264C352.906 201.264 353.695 201.456 354.367 201.84C355.05 202.213 355.546 202.752 355.855 203.456L353.919 204.496C353.471 203.707 352.826 203.312 351.983 203.312C351.332 203.312 350.794 203.525 350.367 203.952C349.94 204.379 349.727 204.96 349.727 205.696C349.727 206.432 349.94 207.013 350.367 207.44C350.794 207.867 351.332 208.08 351.983 208.08C352.836 208.08 353.482 207.685 353.919 206.896L355.855 207.952C355.546 208.635 355.05 209.168 354.367 209.552C353.695 209.936 352.906 210.128 351.999 210.128ZM365.503 201.392V210H363.007V203.44H360.287L360.207 204.96C360.164 206.091 360.058 207.029 359.887 207.776C359.716 208.523 359.439 209.109 359.055 209.536C358.671 209.963 358.138 210.176 357.455 210.176C357.092 210.176 356.66 210.112 356.159 209.984L356.287 207.936C356.458 207.957 356.58 207.968 356.655 207.968C357.028 207.968 357.306 207.835 357.487 207.568C357.679 207.291 357.807 206.944 357.871 206.528C357.935 206.101 357.983 205.541 358.015 204.848L358.143 201.392H365.503ZM376.527 201.392L372.639 210.528C372.244 211.52 371.754 212.219 371.167 212.624C370.591 213.029 369.892 213.232 369.071 213.232C368.623 213.232 368.18 213.163 367.743 213.024C367.306 212.885 366.948 212.693 366.671 212.448L367.583 210.672C367.775 210.843 367.994 210.976 368.239 211.072C368.495 211.168 368.746 211.216 368.991 211.216C369.332 211.216 369.61 211.131 369.823 210.96C370.036 210.8 370.228 210.528 370.399 210.144L370.431 210.064L366.703 201.392H369.279L371.695 207.232L374.127 201.392H376.527ZM384.627 203.44H380.211V210H377.731V201.392H384.627V203.44ZM385.95 201.392H388.43V206.512L392.622 201.392H394.91V210H392.43V204.88L388.254 210H385.95V201.392Z" fill="white"/>
<path d="M488.688 154.192C487.547 154.192 486.512 153.947 485.584 153.456C484.667 152.955 483.941 152.267 483.408 151.392C482.885 150.507 482.624 149.509 482.624 148.4C482.624 147.291 482.885 146.299 483.408 145.424C483.941 144.539 484.667 143.851 485.584 143.36C486.512 142.859 487.552 142.608 488.704 142.608C489.675 142.608 490.549 142.779 491.328 143.12C492.117 143.461 492.779 143.952 493.312 144.592L491.648 146.128C490.891 145.253 489.952 144.816 488.832 144.816C488.139 144.816 487.52 144.971 486.976 145.28C486.432 145.579 486.005 146 485.696 146.544C485.397 147.088 485.248 147.707 485.248 148.4C485.248 149.093 485.397 149.712 485.696 150.256C486.005 150.8 486.432 151.227 486.976 151.536C487.52 151.835 488.139 151.984 488.832 151.984C489.952 151.984 490.891 151.541 491.648 150.656L493.312 152.192C492.779 152.843 492.117 153.339 491.328 153.68C490.539 154.021 489.659 154.192 488.688 154.192ZM502.881 149.728C502.881 149.76 502.865 149.984 502.833 150.4H496.321C496.438 150.933 496.715 151.355 497.153 151.664C497.59 151.973 498.134 152.128 498.785 152.128C499.233 152.128 499.627 152.064 499.969 151.936C500.321 151.797 500.646 151.584 500.945 151.296L502.273 152.736C501.462 153.664 500.278 154.128 498.721 154.128C497.75 154.128 496.891 153.941 496.145 153.568C495.398 153.184 494.822 152.656 494.417 151.984C494.011 151.312 493.809 150.549 493.809 149.696C493.809 148.853 494.006 148.096 494.401 147.424C494.806 146.741 495.355 146.213 496.049 145.84C496.753 145.456 497.537 145.264 498.401 145.264C499.243 145.264 500.006 145.445 500.689 145.808C501.371 146.171 501.905 146.693 502.289 147.376C502.683 148.048 502.881 148.832 502.881 149.728ZM498.417 147.152C497.851 147.152 497.377 147.312 496.993 147.632C496.609 147.952 496.374 148.389 496.289 148.944H500.529C500.443 148.4 500.209 147.968 499.825 147.648C499.441 147.317 498.971 147.152 498.417 147.152ZM509.866 145.264C510.666 145.264 511.391 145.451 512.042 145.824C512.703 146.187 513.22 146.704 513.594 147.376C513.967 148.037 514.154 148.811 514.154 149.696C514.154 150.581 513.967 151.36 513.594 152.032C513.22 152.693 512.703 153.211 512.042 153.584C511.391 153.947 510.666 154.128 509.866 154.128C508.767 154.128 507.903 153.781 507.274 153.088V157.104H504.778V145.392H507.162V146.384C507.78 145.637 508.682 145.264 509.866 145.264ZM509.434 152.08C510.074 152.08 510.596 151.867 511.002 151.44C511.418 151.003 511.626 150.421 511.626 149.696C511.626 148.971 511.418 148.395 511.002 147.968C510.596 147.531 510.074 147.312 509.434 147.312C508.794 147.312 508.266 147.531 507.85 147.968C507.444 148.395 507.242 148.971 507.242 149.696C507.242 150.421 507.444 151.003 507.85 151.44C508.266 151.867 508.794 152.08 509.434 152.08ZM522.823 147.44H519.911V154H517.431V147.44H514.519V145.392H522.823V147.44ZM524.153 145.392H526.633V150.512L530.825 145.392H533.113V154H530.633V148.88L526.457 154H524.153V145.392ZM547.401 149.664C547.401 150.997 546.953 152.053 546.057 152.832C545.171 153.6 543.902 154.043 542.249 154.16V157.104H539.961V154.16C538.307 154.043 537.033 153.605 536.137 152.848C535.251 152.08 534.809 151.019 534.809 149.664C534.809 148.331 535.246 147.296 536.121 146.56C537.006 145.824 538.286 145.397 539.961 145.28V142.128H542.249V145.28C543.902 145.397 545.171 145.829 546.057 146.576C546.953 147.323 547.401 148.352 547.401 149.664ZM537.225 149.664C537.225 150.432 537.443 151.024 537.881 151.44C538.318 151.856 539.011 152.117 539.961 152.224V147.216C539.011 147.312 538.318 147.563 537.881 147.968C537.443 148.363 537.225 148.928 537.225 149.664ZM542.249 152.224C543.198 152.117 543.891 151.856 544.329 151.44C544.777 151.024 545.001 150.432 545.001 149.664C545.001 148.928 544.777 148.363 544.329 147.968C543.891 147.563 543.198 147.312 542.249 147.216V152.224ZM549.091 145.392H551.571V150.512L555.763 145.392H558.051V154H555.571V148.88L551.395 154H549.091V145.392ZM564.242 150.736H562.946V154H560.45V145.392H562.946V148.736H564.29L566.626 145.392H569.282L566.274 149.52L569.49 154H566.546L564.242 150.736ZM573.903 145.264C575.237 145.264 576.261 145.584 576.975 146.224C577.69 146.853 578.047 147.808 578.047 149.088V154H575.711V152.928C575.242 153.728 574.367 154.128 573.087 154.128C572.426 154.128 571.85 154.016 571.359 153.792C570.879 153.568 570.511 153.259 570.255 152.864C569.999 152.469 569.871 152.021 569.871 151.52C569.871 150.72 570.17 150.091 570.767 149.632C571.375 149.173 572.309 148.944 573.567 148.944H575.551C575.551 148.4 575.386 147.984 575.055 147.696C574.725 147.397 574.229 147.248 573.567 147.248C573.109 147.248 572.655 147.323 572.207 147.472C571.77 147.611 571.397 147.803 571.087 148.048L570.191 146.304C570.661 145.973 571.221 145.717 571.871 145.536C572.533 145.355 573.21 145.264 573.903 145.264ZM573.711 152.448C574.138 152.448 574.517 152.352 574.847 152.16C575.178 151.957 575.413 151.664 575.551 151.28V150.4H573.839C572.815 150.4 572.303 150.736 572.303 151.408C572.303 151.728 572.426 151.984 572.671 152.176C572.927 152.357 573.274 152.448 573.711 152.448ZM587.448 147.44H584.536V154H582.056V147.44H579.144V145.392H587.448V147.44ZM593.306 148.144C594.426 148.155 595.274 148.405 595.85 148.896C596.426 149.387 596.714 150.091 596.714 151.008C596.714 151.968 596.389 152.709 595.738 153.232C595.087 153.755 594.165 154.016 592.97 154.016L588.778 154V145.392H591.258V148.144H593.306ZM597.642 145.392H600.122V154H597.642V145.392ZM592.746 152.24C593.226 152.251 593.594 152.149 593.85 151.936C594.106 151.723 594.234 151.403 594.234 150.976C594.234 150.56 594.106 150.256 593.85 150.064C593.605 149.872 593.237 149.771 592.746 149.76L591.258 149.744V152.24H592.746Z" fill="white"/>
<path d="M487.728 205.488H485.936V210H483.36V198.8H485.936V203.328H487.792L490.736 198.8H493.472L489.808 204.208L493.584 210H490.64L487.728 205.488ZM498.513 210.128C497.607 210.128 496.791 209.941 496.065 209.568C495.351 209.184 494.791 208.656 494.385 207.984C493.98 207.312 493.777 206.549 493.777 205.696C493.777 204.843 493.98 204.08 494.385 203.408C494.791 202.736 495.351 202.213 496.065 201.84C496.791 201.456 497.607 201.264 498.513 201.264C499.42 201.264 500.231 201.456 500.945 201.84C501.66 202.213 502.22 202.736 502.625 203.408C503.031 204.08 503.233 204.843 503.233 205.696C503.233 206.549 503.031 207.312 502.625 207.984C502.22 208.656 501.66 209.184 500.945 209.568C500.231 209.941 499.42 210.128 498.513 210.128ZM498.513 208.08C499.153 208.08 499.676 207.867 500.081 207.44C500.497 207.003 500.705 206.421 500.705 205.696C500.705 204.971 500.497 204.395 500.081 203.968C499.676 203.531 499.153 203.312 498.513 203.312C497.873 203.312 497.345 203.531 496.929 203.968C496.513 204.395 496.305 204.971 496.305 205.696C496.305 206.421 496.513 207.003 496.929 207.44C497.345 207.867 497.873 208.08 498.513 208.08ZM504.95 201.392H507.43V204.752H511.174V201.392H513.67V210H511.174V206.784H507.43V210H504.95V201.392ZM523.291 203.44H520.379V210H517.899V203.44H514.987V201.392H523.291V203.44ZM527.966 201.264C529.299 201.264 530.323 201.584 531.038 202.224C531.753 202.853 532.11 203.808 532.11 205.088V210H529.774V208.928C529.305 209.728 528.43 210.128 527.15 210.128C526.489 210.128 525.913 210.016 525.422 209.792C524.942 209.568 524.574 209.259 524.318 208.864C524.062 208.469 523.934 208.021 523.934 207.52C523.934 206.72 524.233 206.091 524.83 205.632C525.438 205.173 526.371 204.944 527.63 204.944H529.614C529.614 204.4 529.449 203.984 529.118 203.696C528.787 203.397 528.291 203.248 527.63 203.248C527.171 203.248 526.718 203.323 526.27 203.472C525.833 203.611 525.459 203.803 525.15 204.048L524.254 202.304C524.723 201.973 525.283 201.717 525.934 201.536C526.595 201.355 527.273 201.264 527.966 201.264ZM527.774 208.448C528.201 208.448 528.579 208.352 528.91 208.16C529.241 207.957 529.475 207.664 529.614 207.28V206.4H527.902C526.878 206.4 526.366 206.736 526.366 207.408C526.366 207.728 526.489 207.984 526.734 208.176C526.99 208.357 527.337 208.448 527.774 208.448ZM538.07 206.736H536.774V210H534.278V201.392H536.774V204.736H538.118L540.454 201.392H543.11L540.102 205.52L543.318 210H540.374L538.07 206.736ZM551.698 203.44H548.786V210H546.306V203.44H543.394V201.392H551.698V203.44ZM557.556 204.144C558.676 204.155 559.524 204.405 560.1 204.896C560.676 205.387 560.964 206.091 560.964 207.008C560.964 207.968 560.639 208.709 559.988 209.232C559.337 209.755 558.415 210.016 557.22 210.016L553.028 210V201.392H555.508V204.144H557.556ZM561.892 201.392H564.372V210H561.892V201.392ZM556.996 208.24C557.476 208.251 557.844 208.149 558.1 207.936C558.356 207.723 558.484 207.403 558.484 206.976C558.484 206.56 558.356 206.256 558.1 206.064C557.855 205.872 557.487 205.771 556.996 205.76L555.508 205.744V208.24H556.996Z" fill="white"/>
<rect x="665" y="140" width="83" height="25" rx="10" fill="#C4C4C4"/>
<path d="M725.21 149.93V158H722.99V157.04C722.68 157.39 722.31 157.66 721.88 157.85C721.45 158.03 720.985 158.12 720.485 158.12C719.425 158.12 718.585 157.815 717.965 157.205C717.345 156.595 717.035 155.69 717.035 154.49V149.93H719.375V154.145C719.375 155.445 719.92 156.095 721.01 156.095C721.57 156.095 722.02 155.915 722.36 155.555C722.7 155.185 722.87 154.64 722.87 153.92V149.93H725.21ZM730.633 149.81C731.883 149.81 732.843 150.11 733.513 150.71C734.183 151.3 734.518 152.195 734.518 153.395V158H732.328V156.995C731.888 157.745 731.068 158.12 729.868 158.12C729.248 158.12 728.708 158.015 728.248 157.805C727.798 157.595 727.453 157.305 727.213 156.935C726.973 156.565 726.853 156.145 726.853 155.675C726.853 154.925 727.133 154.335 727.693 153.905C728.263 153.475 729.138 153.26 730.318 153.26H732.178C732.178 152.75 732.023 152.36 731.713 152.09C731.403 151.81 730.938 151.67 730.318 151.67C729.888 151.67 729.463 151.74 729.043 151.88C728.633 152.01 728.283 152.19 727.993 152.42L727.153 150.785C727.593 150.475 728.118 150.235 728.728 150.065C729.348 149.895 729.983 149.81 730.633 149.81ZM730.453 156.545C730.853 156.545 731.208 156.455 731.518 156.275C731.828 156.085 732.048 155.81 732.178 155.45V154.625H730.573C729.613 154.625 729.133 154.94 729.133 155.57C729.133 155.87 729.248 156.11 729.478 156.29C729.718 156.46 730.043 156.545 730.453 156.545Z" fill="white"/>
<rect x="665" y="140" width="43" height="25" rx="10" fill="#353B49"/>
<path d="M681.315 150.995C681.595 150.605 681.97 150.31 682.44 150.11C682.92 149.91 683.47 149.81 684.09 149.81V151.97C683.83 151.95 683.655 151.94 683.565 151.94C682.895 151.94 682.37 152.13 681.99 152.51C681.61 152.88 681.42 153.44 681.42 154.19V158H679.08V149.93H681.315V150.995ZM693.67 149.93V158H691.45V157.04C691.14 157.39 690.77 157.66 690.34 157.85C689.91 158.03 689.445 158.12 688.945 158.12C687.885 158.12 687.045 157.815 686.425 157.205C685.805 156.595 685.495 155.69 685.495 154.49V149.93H687.835V154.145C687.835 155.445 688.38 156.095 689.47 156.095C690.03 156.095 690.48 155.915 690.82 155.555C691.16 155.185 691.33 154.64 691.33 153.92V149.93H693.67Z" fill="white"/>
<defs>
<clipPath id="clip0">
<rect width="768" height="274" fill="white"/>
</clipPath>
</defs>
</svg>
