<svg width="26" height="26" viewBox="0 0 26 26" fill="none" xmlns="http://www.w3.org/2000/svg">
<g clip-path="url(#clip0)">
<path d="M25.9554 3.92331C25.9144 3.63766 25.7158 3.3996 25.4421 3.30814C25.1699 3.21592 24.8671 3.28803 24.6625 3.49187L23.5854 4.56975C23.0096 5.14551 22.0062 5.14551 21.4304 4.56975C20.8346 3.97399 20.8349 3.01087 21.4304 2.41551L22.5075 1.33839C22.7114 1.13455 22.7828 0.832557 22.6912 0.558796C22.5997 0.285034 22.3617 0.0864287 22.0761 0.0455498C20.6546 -0.15529 19.2159 0.322257 18.199 1.33763C17.049 2.48838 16.5953 4.17996 17.0155 5.75321L5.75326 17.0151L5.7525 17.0143C4.18519 16.5985 2.48397 17.0522 1.33768 18.1985C0.327489 19.2087 -0.155999 20.6585 0.0448408 22.0763C0.0857705 22.3619 0.284376 22.6 0.558087 22.6914C0.829614 22.783 1.13308 22.7116 1.33768 22.5077L2.4148 21.4298C2.99056 20.8541 3.99405 20.8541 4.56981 21.4298C5.16557 22.0255 5.16527 22.9886 4.56981 23.5841L3.49268 24.6612C3.28885 24.865 3.21745 25.167 3.30896 25.4408C3.40047 25.7146 3.63848 25.9132 3.92412 25.954C5.34193 26.1558 6.76858 25.6936 7.80117 24.662C8.95116 23.5112 9.40494 21.8196 8.98468 20.2464L20.2469 8.98452L20.2477 8.98528C21.8232 9.4026 23.5162 8.94735 24.6625 7.80107C25.6727 6.79087 26.1562 5.34112 25.9554 3.92331Z" fill="white"/>
<path d="M21.4298 16.8595C21.069 16.8595 20.6978 16.9138 20.2619 17.0291L17.3096 14.0771L14.0772 17.3092L17.0291 20.2612C16.9137 20.6979 16.8595 21.0691 16.8595 21.4298C16.8595 23.95 18.9096 26.0001 21.4298 26.0001C23.95 26.0001 26.0001 23.95 26.0001 21.4298C26.0001 18.9096 23.95 16.8595 21.4298 16.8595ZM23.9292 21.2773L23.4762 22.9674C23.4055 23.23 23.2002 23.4353 22.9376 23.5059L21.2476 23.9589C20.9993 24.0274 20.7124 23.9624 20.5119 23.7618L19.2749 22.5248C19.0822 22.3321 19.0071 22.0517 19.0777 21.7891L19.5308 20.099C19.6014 19.8365 19.8068 19.6311 20.0693 19.5605L21.7593 19.1075C22.0205 19.0346 22.3016 19.112 22.495 19.3046L23.732 20.5417C23.9247 20.7343 23.9998 21.0147 23.9292 21.2773Z" fill="white"/>
<path d="M8.98385 5.70989C9.40411 4.13664 8.95033 2.44436 7.80034 1.29431C6.07383 -0.431438 3.06189 -0.431438 1.3369 1.29431C-0.444657 3.07663 -0.444657 5.97619 1.3369 7.75775C2.48171 8.90256 4.177 9.363 5.75248 8.94126L8.6917 11.9225L11.9235 8.69106L8.98385 5.70989ZM6.99175 4.29731L6.53873 5.98736C6.46804 6.24995 6.26273 6.45526 6.00019 6.5259L4.31014 6.97892C4.06187 7.04737 3.77501 6.98237 3.57448 6.78179L2.33744 5.54475C2.14478 5.35209 2.06967 5.07168 2.14031 4.80909L2.59333 3.11904C2.66402 2.85645 2.86933 2.65114 3.13187 2.5805L4.82192 2.12748C5.08451 2.05608 5.36492 2.13195 5.55759 2.32461L6.79462 3.56164C6.98728 3.75431 7.06239 4.03472 6.99175 4.29731Z" fill="white"/>
</g>
<defs>
<clipPath id="clip0">
<rect width="26" height="26" fill="white"/>
</clipPath>
</defs>
</svg>
