<svg width="25" height="24" viewBox="0 0 25 24" fill="none" xmlns="http://www.w3.org/2000/svg">
<path d="M18.095 21.006H18.067C14.2253 20.9115 10.5593 19.3775 7.79498 16.708C5.1245 13.9463 3.58967 10.2816 3.49486 6.44103C3.4892 5.90303 3.70044 5.38539 4.08098 5.00503L6.79498 2.29303C7.18548 1.90265 7.81848 1.90265 8.20898 2.29303L12.209 6.29303C12.5994 6.68353 12.5994 7.31653 12.209 7.70703L10.613 9.30003C10.909 10.406 11.4542 11.4294 12.207 12.292C13.068 13.045 14.0902 13.5907 15.195 13.887L16.795 12.293C17.1855 11.9026 17.8185 11.9026 18.209 12.293L22.209 16.293C22.5994 16.6835 22.5994 17.3165 22.209 17.707L19.495 20.42C19.1249 20.7939 18.621 21.0048 18.095 21.006ZM7.49998 4.41503H7.49498L5.49498 6.41903C5.57652 9.73769 6.9013 12.9047 9.20698 15.293C11.5954 17.5979 14.7618 18.9226 18.08 19.005L20.087 17L17.495 14.415L16.202 15.707C16.017 15.8941 15.765 15.9995 15.502 16C15.4317 16.0001 15.3617 15.9927 15.293 15.978C13.6266 15.6094 12.0794 14.8286 10.793 13.707C9.67143 12.4206 8.89059 10.8734 8.52198 9.20703C8.45244 8.8758 8.55517 8.53187 8.79498 8.29303L10.087 7.00003L7.49998 4.41503Z" fill="#4E8AFF"/>
</svg>
