<svg width="15" height="19" viewBox="0 0 15 19" fill="none" xmlns="http://www.w3.org/2000/svg">
<path d="M7.5 19C6.23693 17.9227 5.06619 16.7416 4 15.4691C2.4 13.5581 0.500001 10.712 0.500001 8.00005C0.498583 5.1676 2.20425 2.61344 4.82107 1.52945C7.43789 0.445455 10.4501 1.04529 12.452 3.04905C13.7685 4.35966 14.5059 6.14244 14.5 8.00005C14.5 10.712 12.6 13.5581 11 15.4691C9.93382 16.7416 8.76307 17.9227 7.5 19ZM7.5 3.00005C4.73995 3.00336 2.50331 5.24 2.5 8.00005C2.5 9.16605 3.027 11.1851 5.535 14.1861C6.15314 14.9241 6.80902 15.6297 7.5 16.3001C8.19105 15.6305 8.84724 14.9259 9.466 14.1891C11.973 11.1841 12.5 9.16505 12.5 8.00005C12.4967 5.24 10.2601 3.00336 7.5 3.00005ZM7.5 11.0001C5.84315 11.0001 4.5 9.6569 4.5 8.00005C4.5 6.3432 5.84315 5.00005 7.5 5.00005C9.15686 5.00005 10.5 6.3432 10.5 8.00005C10.5 8.7957 10.1839 9.55876 9.62132 10.1214C9.05871 10.684 8.29565 11.0001 7.5 11.0001Z" fill="#4E8AFF"/>
</svg>
