<svg width="45" height="45" viewBox="0 0 45 45" fill="none" xmlns="http://www.w3.org/2000/svg">
<path d="M22.5 41.25C14.9129 41.2544 8.07088 36.686 5.16683 29.6767C2.26277 22.6674 3.8691 14.5988 9.2362 9.23615C13.9749 4.49747 20.8817 2.6468 27.3548 4.38128C33.828 6.11576 38.8841 11.1719 40.6186 17.645C42.3531 24.1182 40.5024 31.025 35.7637 35.7637C32.2527 39.2906 27.4765 41.2661 22.5 41.25ZM7.49995 22.8224C7.58867 31.0747 14.327 37.7053 22.5797 37.6612C30.8324 37.6166 37.4991 30.914 37.4991 22.6611C37.4991 14.4083 30.8324 7.70573 22.5797 7.66115C14.327 7.61701 7.58867 14.2476 7.49995 22.4999V22.8224ZM17.6418 29.9999L15 27.3562L19.8562 22.4999L15 17.6437L17.6437 14.9999L22.5 19.8562L27.3562 14.9999L30 17.6437L25.1437 22.4999L30 27.3562L27.3581 29.9999L22.5 25.1437L17.6437 29.9999H17.6418Z" fill="white"/>
</svg>
