<svg width="26" height="26" viewBox="0 0 26 26" fill="none" xmlns="http://www.w3.org/2000/svg">
<g clip-path="url(#clip0)">
<path d="M14.1158 2.02587L2.21 0.216707C1.6575 0.13004 1.09417 0.281706 0.671667 0.639206C0.249167 1.00754 0 1.53837 0 2.09087V24.9167C0 25.5125 0.4875 26 1.08333 26H4.60417V20.3125C4.60417 19.2617 5.44917 18.4167 6.5 18.4167H9.20833C10.2592 18.4167 11.1042 19.2617 11.1042 20.3125V26H15.7083V3.90004C15.7083 2.96837 15.0367 2.17754 14.1158 2.02587ZM5.95833 15.9792H4.33333C3.88483 15.9792 3.52083 15.6152 3.52083 15.1667C3.52083 14.7182 3.88483 14.3542 4.33333 14.3542H5.95833C6.40683 14.3542 6.77083 14.7182 6.77083 15.1667C6.77083 15.6152 6.40683 15.9792 5.95833 15.9792ZM5.95833 12.7292H4.33333C3.88483 12.7292 3.52083 12.3652 3.52083 11.9167C3.52083 11.4682 3.88483 11.1042 4.33333 11.1042H5.95833C6.40683 11.1042 6.77083 11.4682 6.77083 11.9167C6.77083 12.3652 6.40683 12.7292 5.95833 12.7292ZM5.95833 9.4792H4.33333C3.88483 9.4792 3.52083 9.1152 3.52083 8.6667C3.52083 8.2182 3.88483 7.8542 4.33333 7.8542H5.95833C6.40683 7.8542 6.77083 8.2182 6.77083 8.6667C6.77083 9.1152 6.40683 9.4792 5.95833 9.4792ZM5.95833 6.2292H4.33333C3.88483 6.2292 3.52083 5.8652 3.52083 5.4167C3.52083 4.9682 3.88483 4.6042 4.33333 4.6042H5.95833C6.40683 4.6042 6.77083 4.9682 6.77083 5.4167C6.77083 5.8652 6.40683 6.2292 5.95833 6.2292ZM11.375 15.9792H9.75C9.3015 15.9792 8.9375 15.6152 8.9375 15.1667C8.9375 14.7182 9.3015 14.3542 9.75 14.3542H11.375C11.8235 14.3542 12.1875 14.7182 12.1875 15.1667C12.1875 15.6152 11.8235 15.9792 11.375 15.9792ZM11.375 12.7292H9.75C9.3015 12.7292 8.9375 12.3652 8.9375 11.9167C8.9375 11.4682 9.3015 11.1042 9.75 11.1042H11.375C11.8235 11.1042 12.1875 11.4682 12.1875 11.9167C12.1875 12.3652 11.8235 12.7292 11.375 12.7292ZM11.375 9.4792H9.75C9.3015 9.4792 8.9375 9.1152 8.9375 8.6667C8.9375 8.2182 9.3015 7.8542 9.75 7.8542H11.375C11.8235 7.8542 12.1875 8.2182 12.1875 8.6667C12.1875 9.1152 11.8235 9.4792 11.375 9.4792ZM11.375 6.2292H9.75C9.3015 6.2292 8.9375 5.8652 8.9375 5.4167C8.9375 4.9682 9.3015 4.6042 9.75 4.6042H11.375C11.8235 4.6042 12.1875 4.9682 12.1875 5.4167C12.1875 5.8652 11.8235 6.2292 11.375 6.2292Z" fill="white"/>
<path d="M24.5049 11.7454L16.7916 10.1301V25.9999H24.104C25.1495 25.9999 25.9999 25.1495 25.9999 24.104V13.5979C25.9999 12.703 25.39 11.9415 24.5049 11.7454ZM21.9374 22.7499H20.3124C19.8639 22.7499 19.4999 22.3859 19.4999 21.9374C19.4999 21.4889 19.8639 21.1249 20.3124 21.1249H21.9374C22.3859 21.1249 22.7499 21.4889 22.7499 21.9374C22.7499 22.3859 22.3859 22.7499 21.9374 22.7499ZM21.9374 19.4999H20.3124C19.8639 19.4999 19.4999 19.1359 19.4999 18.6874C19.4999 18.2389 19.8639 17.8749 20.3124 17.8749H21.9374C22.3859 17.8749 22.7499 18.2389 22.7499 18.6874C22.7499 19.1359 22.3859 19.4999 21.9374 19.4999ZM21.9374 16.2499H20.3124C19.8639 16.2499 19.4999 15.8859 19.4999 15.4374C19.4999 14.9889 19.8639 14.6249 20.3124 14.6249H21.9374C22.3859 14.6249 22.7499 14.9889 22.7499 15.4374C22.7499 15.8859 22.3859 16.2499 21.9374 16.2499Z" fill="white"/>
</g>
<defs>
<clipPath id="clip0">
<rect width="26" height="26" fill="white"/>
</clipPath>
</defs>
</svg>
