<svg xmlns="http://www.w3.org/2000/svg" xmlns:xlink="http://www.w3.org/1999/xlink"><defs>
<clipPath id="clip0">
<rect width="26" height="26" fill="white"/>
</clipPath>

<clipPath id="clip0">
<rect width="26" height="26" fill="white"/>
</clipPath>
</defs><symbol id="icon-arrow" viewBox="0 0 21 8">
<path d="M16.5 0V3H0.5V5H16.5V8L20.5 4L16.5 0Z" fill="white"/>
</symbol><symbol id="icon-business" viewBox="0 0 26 26">
<g clip-path="url(#clip0)">
<path d="M14.1158 2.02587L2.21 0.216707C1.6575 0.13004 1.09417 0.281706 0.671667 0.639206C0.249167 1.00754 0 1.53837 0 2.09087V24.9167C0 25.5125 0.4875 26 1.08333 26H4.60417V20.3125C4.60417 19.2617 5.44917 18.4167 6.5 18.4167H9.20833C10.2592 18.4167 11.1042 19.2617 11.1042 20.3125V26H15.7083V3.90004C15.7083 2.96837 15.0367 2.17754 14.1158 2.02587ZM5.95833 15.9792H4.33333C3.88483 15.9792 3.52083 15.6152 3.52083 15.1667C3.52083 14.7182 3.88483 14.3542 4.33333 14.3542H5.95833C6.40683 14.3542 6.77083 14.7182 6.77083 15.1667C6.77083 15.6152 6.40683 15.9792 5.95833 15.9792ZM5.95833 12.7292H4.33333C3.88483 12.7292 3.52083 12.3652 3.52083 11.9167C3.52083 11.4682 3.88483 11.1042 4.33333 11.1042H5.95833C6.40683 11.1042 6.77083 11.4682 6.77083 11.9167C6.77083 12.3652 6.40683 12.7292 5.95833 12.7292ZM5.95833 9.4792H4.33333C3.88483 9.4792 3.52083 9.1152 3.52083 8.6667C3.52083 8.2182 3.88483 7.8542 4.33333 7.8542H5.95833C6.40683 7.8542 6.77083 8.2182 6.77083 8.6667C6.77083 9.1152 6.40683 9.4792 5.95833 9.4792ZM5.95833 6.2292H4.33333C3.88483 6.2292 3.52083 5.8652 3.52083 5.4167C3.52083 4.9682 3.88483 4.6042 4.33333 4.6042H5.95833C6.40683 4.6042 6.77083 4.9682 6.77083 5.4167C6.77083 5.8652 6.40683 6.2292 5.95833 6.2292ZM11.375 15.9792H9.75C9.3015 15.9792 8.9375 15.6152 8.9375 15.1667C8.9375 14.7182 9.3015 14.3542 9.75 14.3542H11.375C11.8235 14.3542 12.1875 14.7182 12.1875 15.1667C12.1875 15.6152 11.8235 15.9792 11.375 15.9792ZM11.375 12.7292H9.75C9.3015 12.7292 8.9375 12.3652 8.9375 11.9167C8.9375 11.4682 9.3015 11.1042 9.75 11.1042H11.375C11.8235 11.1042 12.1875 11.4682 12.1875 11.9167C12.1875 12.3652 11.8235 12.7292 11.375 12.7292ZM11.375 9.4792H9.75C9.3015 9.4792 8.9375 9.1152 8.9375 8.6667C8.9375 8.2182 9.3015 7.8542 9.75 7.8542H11.375C11.8235 7.8542 12.1875 8.2182 12.1875 8.6667C12.1875 9.1152 11.8235 9.4792 11.375 9.4792ZM11.375 6.2292H9.75C9.3015 6.2292 8.9375 5.8652 8.9375 5.4167C8.9375 4.9682 9.3015 4.6042 9.75 4.6042H11.375C11.8235 4.6042 12.1875 4.9682 12.1875 5.4167C12.1875 5.8652 11.8235 6.2292 11.375 6.2292Z" fill="white"/>
<path d="M24.5049 11.7454L16.7916 10.1301V25.9999H24.104C25.1495 25.9999 25.9999 25.1495 25.9999 24.104V13.5979C25.9999 12.703 25.39 11.9415 24.5049 11.7454ZM21.9374 22.7499H20.3124C19.8639 22.7499 19.4999 22.3859 19.4999 21.9374C19.4999 21.4889 19.8639 21.1249 20.3124 21.1249H21.9374C22.3859 21.1249 22.7499 21.4889 22.7499 21.9374C22.7499 22.3859 22.3859 22.7499 21.9374 22.7499ZM21.9374 19.4999H20.3124C19.8639 19.4999 19.4999 19.1359 19.4999 18.6874C19.4999 18.2389 19.8639 17.8749 20.3124 17.8749H21.9374C22.3859 17.8749 22.7499 18.2389 22.7499 18.6874C22.7499 19.1359 22.3859 19.4999 21.9374 19.4999ZM21.9374 16.2499H20.3124C19.8639 16.2499 19.4999 15.8859 19.4999 15.4374C19.4999 14.9889 19.8639 14.6249 20.3124 14.6249H21.9374C22.3859 14.6249 22.7499 14.9889 22.7499 15.4374C22.7499 15.8859 22.3859 16.2499 21.9374 16.2499Z" fill="white"/>
</g>

</symbol><symbol id="icon-chevron-left" viewBox="0 0 12 18">
<path d="M0.543396 8.99998L9.3781 17.8347L11.4567 15.7561L4.69468 8.9941L11.4567 2.2321L9.3781 0.165283L0.543396 8.99998Z" fill="white"/>
</symbol><symbol id="icon-chevron-right" viewBox="0 0 12 18">
<path d="M11.4566 8.99998L2.6219 17.8347L0.543323 15.7561L7.30532 8.9941L0.543323 2.2321L2.6219 0.165283L11.4566 8.99998Z" fill="white"/>
</symbol><symbol id="icon-close" viewBox="0 0 45 45">
<path d="M22.5 41.25C14.9129 41.2544 8.07088 36.686 5.16683 29.6767C2.26277 22.6674 3.8691 14.5988 9.2362 9.23615C13.9749 4.49747 20.8817 2.6468 27.3548 4.38128C33.828 6.11576 38.8841 11.1719 40.6186 17.645C42.3531 24.1182 40.5024 31.025 35.7637 35.7637C32.2527 39.2906 27.4765 41.2661 22.5 41.25ZM7.49995 22.8224C7.58867 31.0747 14.327 37.7053 22.5797 37.6612C30.8324 37.6166 37.4991 30.914 37.4991 22.6611C37.4991 14.4083 30.8324 7.70573 22.5797 7.66115C14.327 7.61701 7.58867 14.2476 7.49995 22.4999V22.8224ZM17.6418 29.9999L15 27.3562L19.8562 22.4999L15 17.6437L17.6437 14.9999L22.5 19.8562L27.3562 14.9999L30 17.6437L25.1437 22.4999L30 27.3562L27.3581 29.9999L22.5 25.1437L17.6437 29.9999H17.6418Z" fill="white"/>
</symbol><symbol id="icon-heart" viewBox="0 0 22 20">
<path d="M0.166687 6.10003C0.166418 4.52956 0.797604 3.02493 1.91824 1.92468C3.03887 0.82442 4.55482 0.220945 6.12502 0.250028C7.98545 0.240148 9.76067 1.02913 11 2.41669C12.2394 1.02913 14.0146 0.240148 15.875 0.250028C17.4452 0.220945 18.9612 0.82442 20.0818 1.92468C21.2024 3.02493 21.8336 4.52956 21.8334 6.10003C21.8334 11.9024 14.9228 16.2834 11 19.75C7.08594 16.2541 0.166687 11.9067 0.166687 6.10003Z" fill="white"/>
</symbol><symbol id="icon-location" viewBox="0 0 15 19">
<path d="M7.5 19C6.23693 17.9227 5.06619 16.7416 4 15.4691C2.4 13.5581 0.500001 10.712 0.500001 8.00005C0.498583 5.1676 2.20425 2.61344 4.82107 1.52945C7.43789 0.445455 10.4501 1.04529 12.452 3.04905C13.7685 4.35966 14.5059 6.14244 14.5 8.00005C14.5 10.712 12.6 13.5581 11 15.4691C9.93382 16.7416 8.76307 17.9227 7.5 19ZM7.5 3.00005C4.73995 3.00336 2.50331 5.24 2.5 8.00005C2.5 9.16605 3.027 11.1851 5.535 14.1861C6.15314 14.9241 6.80902 15.6297 7.5 16.3001C8.19105 15.6305 8.84724 14.9259 9.466 14.1891C11.973 11.1841 12.5 9.16505 12.5 8.00005C12.4967 5.24 10.2601 3.00336 7.5 3.00005ZM7.5 11.0001C5.84315 11.0001 4.5 9.6569 4.5 8.00005C4.5 6.3432 5.84315 5.00005 7.5 5.00005C9.15686 5.00005 10.5 6.3432 10.5 8.00005C10.5 8.7957 10.1839 9.55876 9.62132 10.1214C9.05871 10.684 8.29565 11.0001 7.5 11.0001Z" fill="#4E8AFF"/>
</symbol><symbol id="icon-phone" viewBox="0 0 25 24">
<path d="M18.095 21.006H18.067C14.2253 20.9115 10.5593 19.3775 7.79498 16.708C5.1245 13.9463 3.58967 10.2816 3.49486 6.44103C3.4892 5.90303 3.70044 5.38539 4.08098 5.00503L6.79498 2.29303C7.18548 1.90265 7.81848 1.90265 8.20898 2.29303L12.209 6.29303C12.5994 6.68353 12.5994 7.31653 12.209 7.70703L10.613 9.30003C10.909 10.406 11.4542 11.4294 12.207 12.292C13.068 13.045 14.0902 13.5907 15.195 13.887L16.795 12.293C17.1855 11.9026 17.8185 11.9026 18.209 12.293L22.209 16.293C22.5994 16.6835 22.5994 17.3165 22.209 17.707L19.495 20.42C19.1249 20.7939 18.621 21.0048 18.095 21.006ZM7.49998 4.41503H7.49498L5.49498 6.41903C5.57652 9.73769 6.9013 12.9047 9.20698 15.293C11.5954 17.5979 14.7618 18.9226 18.08 19.005L20.087 17L17.495 14.415L16.202 15.707C16.017 15.8941 15.765 15.9995 15.502 16C15.4317 16.0001 15.3617 15.9927 15.293 15.978C13.6266 15.6094 12.0794 14.8286 10.793 13.707C9.67143 12.4206 8.89059 10.8734 8.52198 9.20703C8.45244 8.8758 8.55517 8.53187 8.79498 8.29303L10.087 7.00003L7.49998 4.41503Z" fill="#4E8AFF"/>
</symbol><symbol id="icon-wrench" viewBox="0 0 26 26">
<g clip-path="url(#clip0)">
<path d="M25.9554 3.92331C25.9144 3.63766 25.7158 3.3996 25.4421 3.30814C25.1699 3.21592 24.8671 3.28803 24.6625 3.49187L23.5854 4.56975C23.0096 5.14551 22.0062 5.14551 21.4304 4.56975C20.8346 3.97399 20.8349 3.01087 21.4304 2.41551L22.5075 1.33839C22.7114 1.13455 22.7828 0.832557 22.6912 0.558796C22.5997 0.285034 22.3617 0.0864287 22.0761 0.0455498C20.6546 -0.15529 19.2159 0.322257 18.199 1.33763C17.049 2.48838 16.5953 4.17996 17.0155 5.75321L5.75326 17.0151L5.7525 17.0143C4.18519 16.5985 2.48397 17.0522 1.33768 18.1985C0.327489 19.2087 -0.155999 20.6585 0.0448408 22.0763C0.0857705 22.3619 0.284376 22.6 0.558087 22.6914C0.829614 22.783 1.13308 22.7116 1.33768 22.5077L2.4148 21.4298C2.99056 20.8541 3.99405 20.8541 4.56981 21.4298C5.16557 22.0255 5.16527 22.9886 4.56981 23.5841L3.49268 24.6612C3.28885 24.865 3.21745 25.167 3.30896 25.4408C3.40047 25.7146 3.63848 25.9132 3.92412 25.954C5.34193 26.1558 6.76858 25.6936 7.80117 24.662C8.95116 23.5112 9.40494 21.8196 8.98468 20.2464L20.2469 8.98452L20.2477 8.98528C21.8232 9.4026 23.5162 8.94735 24.6625 7.80107C25.6727 6.79087 26.1562 5.34112 25.9554 3.92331Z" fill="white"/>
<path d="M21.4298 16.8595C21.069 16.8595 20.6978 16.9138 20.2619 17.0291L17.3096 14.0771L14.0772 17.3092L17.0291 20.2612C16.9137 20.6979 16.8595 21.0691 16.8595 21.4298C16.8595 23.95 18.9096 26.0001 21.4298 26.0001C23.95 26.0001 26.0001 23.95 26.0001 21.4298C26.0001 18.9096 23.95 16.8595 21.4298 16.8595ZM23.9292 21.2773L23.4762 22.9674C23.4055 23.23 23.2002 23.4353 22.9376 23.5059L21.2476 23.9589C20.9993 24.0274 20.7124 23.9624 20.5119 23.7618L19.2749 22.5248C19.0822 22.3321 19.0071 22.0517 19.0777 21.7891L19.5308 20.099C19.6014 19.8365 19.8068 19.6311 20.0693 19.5605L21.7593 19.1075C22.0205 19.0346 22.3016 19.112 22.495 19.3046L23.732 20.5417C23.9247 20.7343 23.9998 21.0147 23.9292 21.2773Z" fill="white"/>
<path d="M8.98385 5.70989C9.40411 4.13664 8.95033 2.44436 7.80034 1.29431C6.07383 -0.431438 3.06189 -0.431438 1.3369 1.29431C-0.444657 3.07663 -0.444657 5.97619 1.3369 7.75775C2.48171 8.90256 4.177 9.363 5.75248 8.94126L8.6917 11.9225L11.9235 8.69106L8.98385 5.70989ZM6.99175 4.29731L6.53873 5.98736C6.46804 6.24995 6.26273 6.45526 6.00019 6.5259L4.31014 6.97892C4.06187 7.04737 3.77501 6.98237 3.57448 6.78179L2.33744 5.54475C2.14478 5.35209 2.06967 5.07168 2.14031 4.80909L2.59333 3.11904C2.66402 2.85645 2.86933 2.65114 3.13187 2.5805L4.82192 2.12748C5.08451 2.05608 5.36492 2.13195 5.55759 2.32461L6.79462 3.56164C6.98728 3.75431 7.06239 4.03472 6.99175 4.29731Z" fill="white"/>
</g>

</symbol></svg>